HIERARCHY
ROOT Hips
{
	OFFSET 0.000000 100.481300 0.000000
	CHANNELS 6 Xposition Yposition Zposition Xrotation Yrotation Zrotation
	JOINT Spine
	{
		OFFSET -0.279200 12.230698 -2.892100
		CHANNELS 3 Xrotation Yrotation Zrotation
		JOINT Spine1
		{
			OFFSET -0.325700 14.269203 -3.374200
			CHANNELS 3 Xrotation Yrotation Zrotation
			JOINT Spine2
			{
				OFFSET -0.372300 16.307602 -0.352600
				CHANNELS 3 Xrotation Yrotation Zrotation
				JOINT Neck
				{
					OFFSET -0.418800 17.814194 8.416900
					CHANNELS 3 Xrotation Yrotation Zrotation
					JOINT Head
					{
						OFFSET 0.000000 7.031097 3.806800
						CHANNELS 3 Xrotation Yrotation Zrotation
						JOINT HeadTop_End
						{
							OFFSET 0.000000 24.646606 12.978600
							CHANNELS 3 Xrotation Yrotation Zrotation
							End Site
							{
								OFFSET 0.000000 27.854965 0.000000
							}
						}
					}
				}
				JOINT LeftShoulder
				{
					OFFSET 16.952999 14.495407 -7.737500
					CHANNELS 3 Xrotation Yrotation Zrotation
					JOINT LeftArm
					{
						OFFSET 9.308998 -2.777710 0.208600
						CHANNELS 3 Xrotation Yrotation Zrotation
						JOINT LeftForeArm
						{
							OFFSET 29.972298 0.000000 0.000000
							CHANNELS 3 Xrotation Yrotation Zrotation
							JOINT LeftHand
							{
								OFFSET 26.026505 0.000000 0.000000
								CHANNELS 3 Xrotation Yrotation Zrotation
								JOINT LeftHandThumb1
								{
									OFFSET 12.240501 -7.147949 9.207150
									CHANNELS 3 Xrotation Yrotation Zrotation
									JOINT LeftHandThumb2
									{
										OFFSET 4.138618 -2.389435 2.389433
										CHANNELS 3 Xrotation Yrotation Zrotation
										JOINT LeftHandThumb3
										{
											OFFSET 2.726913 -1.574387 1.574386
											CHANNELS 3 Xrotation Yrotation Zrotation
											JOINT LeftHandThumb4
											{
												OFFSET 3.941010 -2.275345 2.275342
												CHANNELS 3 Xrotation Yrotation Zrotation
												End Site
												{
													OFFSET -0.005798 5.087799 0.009903
												}
											}
										}
									}
								}
								JOINT LeftHandIndex1
								{
									OFFSET 24.424698 -1.985611 5.953459
									CHANNELS 3 Xrotation Yrotation Zrotation
									JOINT LeftHandIndex2
									{
										OFFSET 6.426697 0.000000 0.000000
										CHANNELS 3 Xrotation Yrotation Zrotation
										JOINT LeftHandIndex3
										{
											OFFSET 5.337898 0.000000 0.000000
											CHANNELS 3 Xrotation Yrotation Zrotation
											JOINT LeftHandIndex4
											{
												OFFSET 4.409401 0.000000 0.000000
												CHANNELS 3 Xrotation Yrotation Zrotation
												End Site
												{
													OFFSET 0.000000 4.409363 0.014373
												}
											}
										}
									}
								}
								JOINT LeftHandMiddle1
								{
									OFFSET 23.810104 0.000000 0.000000
									CHANNELS 3 Xrotation Yrotation Zrotation
									JOINT LeftHandMiddle2
									{
										OFFSET 7.176498 0.000000 0.000000
										CHANNELS 3 Xrotation Yrotation Zrotation
										JOINT LeftHandMiddle3
										{
											OFFSET 6.774902 0.000000 0.000000
											CHANNELS 3 Xrotation Yrotation Zrotation
											JOINT LeftHandMiddle4
											{
												OFFSET 5.403328 0.000000 0.000000
												CHANNELS 3 Xrotation Yrotation Zrotation
												End Site
												{
													OFFSET -0.027702 5.403244 0.017414
												}
											}
										}
									}
								}
								JOINT LeftHandRing1
								{
									OFFSET 22.908401 -0.839279 -6.020567
									CHANNELS 3 Xrotation Yrotation Zrotation
									JOINT LeftHandRing2
									{
										OFFSET 6.337502 0.000000 0.000000
										CHANNELS 3 Xrotation Yrotation Zrotation
										JOINT LeftHandRing3
										{
											OFFSET 5.779297 0.000000 0.000000
											CHANNELS 3 Xrotation Yrotation Zrotation
											JOINT LeftHandRing4
											{
												OFFSET 4.965698 0.000000 0.000000
												CHANNELS 3 Xrotation Yrotation Zrotation
												End Site
												{
													OFFSET 0.000000 4.965668 0.016186
												}
											}
										}
									}
								}
								JOINT LeftHandPinky1
								{
									OFFSET 20.037003 -1.530319 -10.950146
									CHANNELS 3 Xrotation Yrotation Zrotation
									JOINT LeftHandPinky2
									{
										OFFSET 5.254700 0.000000 0.000000
										CHANNELS 3 Xrotation Yrotation Zrotation
										JOINT LeftHandPinky3
										{
											OFFSET 4.810204 0.000000 0.000000
											CHANNELS 3 Xrotation Yrotation Zrotation
											JOINT LeftHandPinky4
											{
												OFFSET 3.647202 0.000000 0.000000
												CHANNELS 3 Xrotation Yrotation Zrotation
												End Site
												{
													OFFSET 0.000000 3.647186 0.011889
												}
											}
										}
									}
								}
							}
						}
					}
				}
				JOINT RightShoulder
				{
					OFFSET -15.141001 14.495407 -7.737500
					CHANNELS 3 Xrotation Yrotation Zrotation
					JOINT RightArm
					{
						OFFSET -9.308998 -2.777710 0.208500
						CHANNELS 3 Xrotation Yrotation Zrotation
						JOINT RightForeArm
						{
							OFFSET -29.972300 0.000000 0.000000
							CHANNELS 3 Xrotation Yrotation Zrotation
							JOINT RightHand
							{
								OFFSET -26.026505 0.000000 0.000000
								CHANNELS 3 Xrotation Yrotation Zrotation
								JOINT RightHandThumb1
								{
									OFFSET -12.240601 -7.148026 9.207092
									CHANNELS 3 Xrotation Yrotation Zrotation
									JOINT RightHandThumb2
									{
										OFFSET -4.138618 -2.389435 2.389433
										CHANNELS 3 Xrotation Yrotation Zrotation
										JOINT RightHandThumb3
										{
											OFFSET -2.726974 -1.574417 1.574421
											CHANNELS 3 Xrotation Yrotation Zrotation
											JOINT RightHandThumb4
											{
												OFFSET -3.941010 -2.275345 2.275343
												CHANNELS 3 Xrotation Yrotation Zrotation
												End Site
												{
													OFFSET 0.005814 5.087799 0.009927
												}
											}
										}
									}
								}
								JOINT RightHandIndex1
								{
									OFFSET -24.424698 -1.985657 5.953444
									CHANNELS 3 Xrotation Yrotation Zrotation
									JOINT RightHandIndex2
									{
										OFFSET -6.426697 0.000000 0.000000
										CHANNELS 3 Xrotation Yrotation Zrotation
										JOINT RightHandIndex3
										{
											OFFSET -5.337898 0.000000 0.000000
											CHANNELS 3 Xrotation Yrotation Zrotation
											JOINT RightHandIndex4
											{
												OFFSET -4.409401 0.000000 0.000000
												CHANNELS 3 Xrotation Yrotation Zrotation
												End Site
												{
													OFFSET 0.000000 4.409363 0.014408
												}
											}
										}
									}
								}
								JOINT RightHandMiddle1
								{
									OFFSET -23.810097 0.000000 0.000000
									CHANNELS 3 Xrotation Yrotation Zrotation
									JOINT RightHandMiddle2
									{
										OFFSET -7.176498 0.000000 0.000000
										CHANNELS 3 Xrotation Yrotation Zrotation
										JOINT RightHandMiddle3
										{
											OFFSET -6.774902 0.000000 0.000000
											CHANNELS 3 Xrotation Yrotation Zrotation
											JOINT RightHandMiddle4
											{
												OFFSET -5.403328 0.000000 0.000000
												CHANNELS 3 Xrotation Yrotation Zrotation
												End Site
												{
													OFFSET 0.027702 5.403244 0.017457
												}
											}
										}
									}
								}
								JOINT RightHandRing1
								{
									OFFSET -22.908302 -0.839325 -6.020576
									CHANNELS 3 Xrotation Yrotation Zrotation
									JOINT RightHandRing2
									{
										OFFSET -6.337502 0.000000 0.000000
										CHANNELS 3 Xrotation Yrotation Zrotation
										JOINT RightHandRing3
										{
											OFFSET -5.779297 0.000000 0.000000
											CHANNELS 3 Xrotation Yrotation Zrotation
											JOINT RightHandRing4
											{
												OFFSET -4.965698 0.000000 0.000000
												CHANNELS 3 Xrotation Yrotation Zrotation
												End Site
												{
													OFFSET 0.000000 4.965668 0.016226
												}
											}
										}
									}
								}
								JOINT RightHandPinky1
								{
									OFFSET -20.037003 -1.530334 -10.950259
									CHANNELS 3 Xrotation Yrotation Zrotation
									JOINT RightHandPinky2
									{
										OFFSET -5.254700 0.000000 0.000000
										CHANNELS 3 Xrotation Yrotation Zrotation
										JOINT RightHandPinky3
										{
											OFFSET -4.810204 0.000000 0.000000
											CHANNELS 3 Xrotation Yrotation Zrotation
											JOINT RightHandPinky4
											{
												OFFSET -3.647202 0.000000 0.000000
												CHANNELS 3 Xrotation Yrotation Zrotation
												End Site
												{
													OFFSET 0.000000 3.647186 0.011917
												}
											}
										}
									}
								}
							}
						}
					}
				}
			}
		}
	}
	JOINT LeftUpLeg
	{
		OFFSET 15.427100 -6.655098 0.678600
		CHANNELS 3 Xrotation Yrotation Zrotation
		JOINT LeftLeg
		{
			OFFSET 4.081073 -39.591068 13.024000
			CHANNELS 3 Xrotation Yrotation Zrotation
			JOINT LeftFoot
			{
				OFFSET -4.081074 -37.707932 -15.979700
				CHANNELS 3 Xrotation Yrotation Zrotation
				JOINT LeftToeBase
				{
					OFFSET 5.346399 -15.068900 20.645000
					CHANNELS 3 Xrotation Yrotation Zrotation
					JOINT LeftToe_End
					{
						OFFSET 2.754700 0.931300 11.300900
						CHANNELS 3 Xrotation Yrotation Zrotation
						End Site
						{
							OFFSET 0.000000 11.669021 0.000000
						}
					}
				}
			}
		}
	}
	JOINT RightUpLeg
	{
		OFFSET -15.569500 -6.655098 0.678600
		CHANNELS 3 Xrotation Yrotation Zrotation
		JOINT RightLeg
		{
			OFFSET -4.081825 -39.591045 13.023800
			CHANNELS 3 Xrotation Yrotation Zrotation
			JOINT RightFoot
			{
				OFFSET 4.081824 -37.707954 -15.979600
				CHANNELS 3 Xrotation Yrotation Zrotation
				JOINT RightToeBase
				{
					OFFSET -5.346400 -15.068900 20.645000
					CHANNELS 3 Xrotation Yrotation Zrotation
					JOINT RightToe_End
					{
						OFFSET -2.754700 0.931300 11.300900
						CHANNELS 3 Xrotation Yrotation Zrotation
						End Site
						{
							OFFSET 0.000000 11.669021 0.000000
						}
					}
				}
			}
		}
	}
}
MOTION
Frames: 4
Frame Time: 0.033333
0.905190 78.905586 -1.138427 -11.457671 -31.853581 -5.090495 13.794069 -4.560832 8.103265 2.026185 -2.342329 0.827091 2.015419 -2.337406 0.867629 13.152125 13.393341 -6.449620 16.976312 9.989557 4.216566 0.000004 -0.000001 -0.000000 0.252789 -11.739849 -12.807370 -52.262763 -16.401427 -40.618069 -0.000022 -60.457604 -0.000001 -132.812291 -1.600876 24.364036 4.703205 9.563388 3.109660 19.473194 -1.474906 7.636924 -4.536197 -9.613094 1.492962 0.000003 0.000005 -0.000001 -0.212821 3.933719 -36.747128 2.942213 5.078945 -60.145396 0.513682 2.400821 -24.150523 -0.000002 0.000001 -0.000002 0.405912 5.507045 -52.453172 3.387139 5.308630 -65.057456 0.282019 1.797449 -17.832377 -0.000003 -0.000001 0.000001 -0.074381 5.736788 -61.061427 4.055035 5.569511 -72.094880 0.582666 2.548973 -25.748005 -0.000001 0.000001 -0.000003 -6.565574 4.545172 -72.425414 3.299612 5.267207 -64.107630 0.175345 1.424013 -14.038881 -0.000000 -0.000000 -0.000001 0.505177 5.257286 11.859105 -34.604143 63.980622 57.403410 -0.000346 97.079739 0.000326 -51.294615 -27.738993 -28.919704 8.377148 -4.904127 11.022007 21.620195 -18.183902 -18.379211 -0.702892 -49.821196 -32.535155 -0.000000 0.000001 0.000005 -0.920038 1.683572 12.434985 0.748117 -2.533468 32.898289 0.615645 -2.316060 29.767826 0.000000 0.000000 -0.000000 3.413054 -7.186248 51.650239 6.296816 -4.359593 110.634687 0.248703 -1.503052 18.790264 -0.000000 0.000000 -0.000000 -3.349048 -2.600453 57.010568 5.440874 -4.590901 99.698161 1.689423 -3.590697 50.382245 0.000000 -0.000001 -0.000001 -3.996444 -3.303936 64.593857 4.058857 -4.618657 82.610523 2.315538 -4.026797 59.787207 -0.000000 -0.000001 0.000002 -25.880051 31.503909 12.007175 72.135704 -6.383443 4.316539 12.474646 3.220668 17.202957 -48.015185 4.488175 -5.927052 -0.000000 0.000000 -0.000000 -27.641776 -3.761755 9.630788 52.872795 -6.530941 -11.004774 -15.804165 -0.029329 0.877629 -11.330450 0.000006 0.000001 0.000001 -0.000001 -0.000000 
0.745396 80.286240 2.843385 -11.538367 -32.309199 -4.868521 13.529106 -4.097156 7.660572 2.426639 -2.223888 0.781345 2.416527 -2.219872 0.818378 12.521657 13.032188 -6.049521 15.983737 10.420324 4.388938 0.000001 0.000000 -0.000001 -1.175410 -11.538625 -12.290671 -51.659149 -16.147597 -41.267296 0.000077 -61.341499 0.000072 -131.976836 -2.803145 24.486045 4.568248 9.093574 3.101683 19.473195 -1.474905 7.636926 -4.536195 -9.613090 1.492960 0.000001 -0.000000 0.000001 -0.292637 3.837795 -36.899841 2.942474 5.079090 -60.148429 0.513679 2.400821 -24.150524 -0.000004 0.000000 -0.000002 0.405912 5.507049 -52.453169 3.387145 5.308628 -65.057456 0.282022 1.797449 -17.832386 -0.000003 -0.000001 0.000003 -0.074381 5.736789 -61.061427 4.073365 5.575379 -72.283728 0.582665 2.548976 -25.748005 -0.000001 -0.000004 -0.000001 -6.106994 4.608725 -72.005944 3.355054 5.293648 -64.710066 0.207671 1.547512 -15.285398 0.000000 -0.000002 0.000001 -1.050013 6.561560 13.197380 -29.244432 62.072677 51.958704 0.000594 96.710547 -0.000528 -43.326793 -25.934517 -28.877828 8.442277 -4.861879 11.004600 21.611161 -18.166941 -18.364022 -0.685632 -49.804339 -32.508511 -0.000001 -0.000000 -0.000001 -0.940646 1.660998 12.716960 0.805494 -2.619937 34.174360 0.616307 -2.317275 29.784771 0.000001 -0.000000 -0.000002 3.386334 -7.175796 51.413050 6.248608 -4.377399 110.001788 0.247976 -1.500881 18.762019 -0.000000 -0.000001 -0.000000 -3.263293 -2.625452 56.781193 5.392406 -4.598895 99.093395 1.684660 -3.586777 50.306396 -0.000000 0.000002 -0.000000 -3.843677 -3.345848 64.372757 4.010912 -4.612211 82.014897 2.307537 -4.022120 59.673136 0.000000 -0.000001 0.000001 -31.348806 29.153679 14.953784 69.246152 -6.479005 3.840439 8.642706 -0.881189 14.367281 -35.940097 2.302667 -4.807412 0.000001 0.000001 0.000000 -23.625322 -3.374357 7.421876 51.813825 -4.939671 -10.614019 -18.504888 -0.403483 1.561925 -11.257393 -0.000006 -0.000001 0.000000 -0.000005 -0.000001 
0.498442 81.907166 6.591168 -11.489240 -32.673702 -4.460090 13.268436 -3.712179 6.976285 2.850048 -2.104498 0.733925 2.840631 -2.100959 0.768921 11.871136 12.650871 -5.618831 14.952954 10.916013 4.565742 0.000002 0.000000 -0.000001 -2.633568 -11.283636 -11.735061 -51.186711 -15.868140 -42.181496 -0.000045 -62.242066 -0.000050 -130.855401 -3.927837 24.662561 4.403334 8.544208 3.090635 19.473195 -1.474914 7.636928 -4.536197 -9.613094 1.492961 0.000002 -0.000001 0.000000 -0.386955 3.725857 -37.079813 2.942772 5.079279 -60.151878 0.513683 2.400821 -24.150521 0.000001 0.000000 -0.000002 0.405912 5.507045 -52.453172 3.387142 5.308633 -65.057456 0.282017 1.797448 -17.832379 -0.000002 0.000001 0.000004 -0.074381 5.736791 -61.061427 4.094949 5.582191 -72.505648 0.582668 2.548974 -25.748001 0.000002 0.000002 -0.000002 -5.570766 4.692319 -71.515619 3.420094 5.323759 -65.413097 0.249079 1.691703 -16.750627 -0.000001 -0.000002 -0.000000 -2.743824 7.966150 14.585977 -23.981996 59.498857 46.891943 0.000046 96.611038 -0.000075 -35.732862 -24.514410 -29.204598 8.448094 -4.858309 11.003116 21.610522 -18.165383 -18.362728 -0.684166 -49.803229 -32.506284 0.000001 -0.000001 -0.000001 -0.961351 1.631683 13.017389 0.872226 -2.715515 35.608010 0.616420 -2.317390 29.786783 0.000001 0.000000 -0.000000 3.383888 -7.174800 51.391740 6.244202 -4.378966 109.944196 0.247999 -1.500989 18.763482 0.000000 -0.000001 -0.000000 -3.255519 -2.627769 56.760593 5.387981 -4.599589 99.038289 1.684230 -3.586427 50.299466 0.000001 0.000000 0.000001 -3.829832 -3.349712 64.352868 4.006554 -4.611602 81.960576 2.306815 -4.021712 59.662836 0.000001 -0.000000 0.000001 -34.380611 27.394854 16.457255 62.918139 -6.461872 3.287481 6.215275 -3.957009 11.619614 -23.569685 1.050549 -4.451173 -0.000000 0.000000 -0.000000 -19.519082 -3.079483 5.039152 49.803865 -3.397116 -10.163618 -20.365672 -0.733598 2.407844 -11.259876 -0.000019 -0.000002 -0.000001 -0.000003 -0.000000 
0.205846 83.660446 10.054828 -11.324772 -32.991238 -3.949478 13.001998 -3.399519 6.118613 3.292963 -1.983164 0.678616 3.284420 -1.980331 0.713086 11.194427 12.246813 -5.145477 13.906321 11.473146 4.771405 0.000000 0.000001 -0.000001 -4.112509 -11.011938 -11.113531 -50.749986 -15.398807 -43.277984 0.000050 -63.284558 0.000060 -129.435008 -4.988681 24.716739 4.220654 7.956708 3.076771 19.473195 -1.474908 7.636926 -4.536192 -9.613090 1.492965 0.000002 -0.000001 0.000000 -0.488898 3.606550 -37.273599 2.943108 5.079467 -60.155539 0.513677 2.400820 -24.150528 -0.000001 0.000000 0.000001 0.405912 5.507043 -52.453169 3.387140 5.308633 -65.057449 0.282020 1.797449 -17.832377 0.000002 -0.000000 0.000004 -0.074381 5.736786 -61.061427 4.118152 5.589388 -72.744021 0.582665 2.548976 -25.748001 -0.000000 -0.000000 -0.000001 -4.997989 4.792524 -70.990964 3.489994 5.355058 -66.164268 0.297662 1.845363 -18.324542 -0.000001 0.000001 -0.000000 -4.596313 9.378277 15.933163 -20.299030 56.738416 43.928273 0.000467 96.081733 -0.000461 -27.681833 -23.478949 -28.149455 8.231923 -4.998532 11.060702 21.640481 -18.221712 -18.413148 -0.741487 -49.859015 -32.594732 -0.000002 0.000000 0.000000 -0.975747 1.587999 13.285509 0.946430 -2.816156 37.146035 0.614228 -2.313605 29.732886 -0.000001 0.000000 0.000001 3.472887 -7.209077 52.179124 6.403538 -4.318023 112.045224 0.250971 -1.509683 18.875948 -0.000001 -0.000000 0.000001 -3.541333 -2.547179 57.521831 5.548520 -4.571263 101.045955 1.700015 -3.599429 50.551258 -0.000000 0.000001 -0.000000 -4.338547 -3.214838 65.086717 4.165892 -4.631242 83.938094 2.333438 -4.037126 60.041563 0.000002 -0.000000 0.000001 -35.751300 26.017693 16.997585 53.872659 -6.401513 2.707174 6.650476 -5.614531 8.983165 -12.778860 0.233882 -4.630603 0.000000 -0.000000 -0.000000 -15.494750 -2.898678 2.703499 47.020983 -2.110304 -9.720046 -21.452960 -0.971499 3.401317 -11.412835 -0.000027 0.000002 0.000001 0.000001 0.000000 
